<svg width="112" height="83" viewBox="0 0 112 83" fill="none" xmlns="http://www.w3.org/2000/svg">
<g filter="url(#filter0_d)">
<path d="M25.3262 32.4819C23.2461 34.6082 20.9696 35.6714 18.4966 35.6714C14.66 35.6714 11.6323 34.1344 9.41357 31.0605C7.21794 27.9635 6.12012 23.8381 6.12012 18.6841C6.12012 15.356 6.74414 12.3167 7.99219 9.56641C9.24023 6.79297 10.9736 4.64355 13.1924 3.11816C15.4342 1.59277 17.9303 0.830078 20.6807 0.830078C23.5234 0.830078 26.0542 1.67367 28.2729 3.36084C30.4917 5.04801 32.2135 7.47477 33.4385 10.6411C34.6634 13.7843 35.2759 17.3667 35.2759 21.3882V24.959C35.2759 33.5566 33.3807 40.2822 29.5903 45.1357C25.8231 49.9661 20.4727 52.4276 13.5391 52.52H12.5337V44.061H13.1924C17.029 44.0379 19.9064 43.0441 21.8247 41.0796C23.7661 39.1151 24.9333 36.2492 25.3262 32.4819ZM20.9927 27.9751C22.8879 27.9751 24.3786 26.6808 25.4648 24.0923V19.5854C25.4648 16.2804 25.0142 13.6919 24.1128 11.8198C23.2114 9.92464 22.0443 8.97705 20.6113 8.97705C19.2015 8.97705 18.0575 9.91309 17.1792 11.7852C16.3241 13.6341 15.8965 15.8991 15.8965 18.5801C15.8965 21.4922 16.3472 23.7918 17.2485 25.479C18.1499 27.1431 19.3979 27.9751 20.9927 27.9751ZM71.5386 31.1299C71.5386 38.1097 70.2674 43.4486 67.7251 47.1465C65.2059 50.8444 61.6004 52.6934 56.9087 52.6934C52.2632 52.6934 48.6693 50.9022 46.127 47.3198C43.6077 43.7144 42.3019 38.5604 42.2095 31.8579V22.3242C42.2095 15.3675 43.4691 10.0518 45.9883 6.37695C48.5075 2.67904 52.1245 0.830078 56.8394 0.830078C61.5542 0.830078 65.1712 2.65592 67.6904 6.30762C70.2096 9.95931 71.4924 15.1711 71.5386 21.9429V31.1299ZM61.6929 20.9028C61.6929 16.9276 61.3 13.9461 60.5142 11.9585C59.7284 9.97087 58.5034 8.97705 56.8394 8.97705C53.7192 8.97705 52.1014 12.6172 51.9858 19.8975V32.4819C51.9858 36.5496 52.3787 39.5773 53.1646 41.5649C53.9735 43.5526 55.2215 44.5464 56.9087 44.5464C58.5034 44.5464 59.6821 43.6219 60.4448 41.7729C61.2306 39.9009 61.6466 37.0465 61.6929 33.21V20.9028ZM107.455 31.1299C107.455 38.1097 106.183 43.4486 103.641 47.1465C101.122 50.8444 97.5164 52.6934 92.8247 52.6934C88.1792 52.6934 84.5853 50.9022 82.043 47.3198C79.5238 43.7144 78.2179 38.5604 78.1255 31.8579V22.3242C78.1255 15.3675 79.3851 10.0518 81.9043 6.37695C84.4235 2.67904 88.0405 0.830078 92.7554 0.830078C97.4702 0.830078 101.087 2.65592 103.606 6.30762C106.126 9.95931 107.408 15.1711 107.455 21.9429V31.1299ZM97.6089 20.9028C97.6089 16.9276 97.216 13.9461 96.4302 11.9585C95.6444 9.97087 94.4194 8.97705 92.7554 8.97705C89.6353 8.97705 88.0174 12.6172 87.9019 19.8975V32.4819C87.9019 36.5496 88.2948 39.5773 89.0806 41.5649C89.8895 43.5526 91.1375 44.5464 92.8247 44.5464C94.4194 44.5464 95.5981 43.6219 96.3608 41.7729C97.1466 39.9009 97.5627 37.0465 97.6089 33.21V20.9028Z" fill="url(#paint0_linear)"/>
<path d="M5.91211 70.8486H5.22852V74H4.01855V66.6035H5.22852V69.7344H5.83008L7.84668 66.6035H9.28906L6.82129 70.124L9.4668 74H7.94922L5.91211 70.8486ZM10.7383 74V66.6035H13.2197C14.0674 66.6035 14.7145 66.7767 15.1611 67.123C15.6077 67.4694 15.8311 67.973 15.8311 68.6338C15.8311 68.9756 15.7422 69.2832 15.5645 69.5566C15.3867 69.8301 15.127 70.0397 14.7852 70.1855C15.1634 70.2858 15.4665 70.4886 15.6943 70.7939C15.9268 71.0993 16.043 71.4684 16.043 71.9014C16.043 72.585 15.8288 73.1068 15.4004 73.4668C14.9766 73.8223 14.375 74 13.5957 74H10.7383ZM11.9414 70.7529V72.9814H13.6094C14.4251 72.9814 14.833 72.6077 14.833 71.8604C14.833 71.1221 14.4206 70.7529 13.5957 70.7529H11.9414ZM11.9414 69.7412H13.2061C14.1494 69.7412 14.6211 69.3949 14.6211 68.7021C14.6211 68.0049 14.1768 67.6471 13.2881 67.6289H11.9414V69.7412ZM18.0186 74.8545H16.9932L20.4863 64.0469H21.5049L18.0186 74.8545ZM26.5088 72.3252L28.4912 66.6035H29.9951V74H28.792V68.9004L26.9258 74H26.0986L24.1914 68.7773V74H22.9883V66.6035H24.5469L26.5088 72.3252Z" fill="#2E35AC"/>
</g>
<defs>
<filter id="filter0_d" x="0.0185547" y="0.830078" width="111.436" height="82.0244" filterUnits="userSpaceOnUse" color-interpolation-filters="sRGB">
<feFlood flood-opacity="0" result="BackgroundImageFix"/>
<feColorMatrix in="SourceAlpha" type="matrix" values="0 0 0 0 0 0 0 0 0 0 0 0 0 0 0 0 0 0 127 0"/>
<feOffset dy="4"/>
<feGaussianBlur stdDeviation="2"/>
<feColorMatrix type="matrix" values="0 0 0 0 0 0 0 0 0 0 0 0 0 0 0 0 0 0 0.25 0"/>
<feBlend mode="normal" in2="BackgroundImageFix" result="effect1_dropShadow"/>
<feBlend mode="normal" in="SourceGraphic" in2="effect1_dropShadow" result="shape"/>
</filter>
<linearGradient id="paint0_linear" x1="3" y1="3" x2="25.4438" y2="41.104" gradientUnits="userSpaceOnUse">
<stop stop-color="#D10A42"/>
<stop offset="1" stop-color="#0041CA"/>
</linearGradient>
</defs>
</svg>
